<svg width="30" height="16" viewBox="0 0 30 16" fill="none" xmlns="http://www.w3.org/2000/svg">
<path d="M28.9971 7.25952H6.17526C5.62139 7.25952 5.17236 7.59099 5.17236 7.99992C5.17236 8.40886 5.62139 8.74033 6.17526 8.74033H28.9971C29.551 8.74033 30 8.40886 30 7.99992C30 7.59102 29.551 7.25952 28.9971 7.25952Z" fill="#2C2E3A"/>
<path d="M23.8247 0H1.0029C0.44903 0 0 0.331502 0 0.740403C0 1.1493 0.44903 1.48081 1.0029 1.48081H23.8247C24.3786 1.48081 24.8276 1.1493 24.8276 0.740403C24.8276 0.331502 24.3786 0 23.8247 0Z" fill="#2C2E3A"/>
<path d="M23.8247 14.5193H1.0029C0.44903 14.5193 0 14.8508 0 15.2597C0 15.6686 0.44903 16.0001 1.0029 16.0001H23.8247C24.3786 16.0001 24.8276 15.6686 24.8276 15.2597C24.8276 14.8508 24.3786 14.5193 23.8247 14.5193Z" fill="#2C2E3A"/>
</svg>
