<svg width="14" height="14" viewBox="0 0 14 14" fill="none" xmlns="http://www.w3.org/2000/svg">
<path d="M13.2471 1.05416e-06H0.765402C0.545259 -0.00041536 0.343437 0.122565 0.242804 0.318418C0.140783 0.516908 0.158689 0.755929 0.289026 0.937208L4.86179 7.37884C4.86332 7.38106 4.86499 7.38314 4.86651 7.38536C5.03266 7.60967 5.12247 7.88131 5.12302 8.16058V13.4124C5.12205 13.568 5.18313 13.7173 5.29278 13.8277C5.40244 13.938 5.55151 13.9999 5.70697 13.9999C5.78609 13.9999 5.86424 13.9841 5.93725 13.9539L8.50679 12.974C8.73707 12.9038 8.88989 12.6866 8.88989 12.4249V8.16058C8.89031 7.88145 8.98026 7.60967 9.14627 7.38536C9.14779 7.38314 9.14946 7.38106 9.15098 7.37884L13.7236 0.93693C13.854 0.75579 13.8719 0.516908 13.7698 0.318418C13.6692 0.122565 13.4674 -0.00041536 13.2471 1.05416e-06ZM8.57328 6.96437C8.31788 7.31096 8.17977 7.73001 8.17894 8.16058V12.3386L5.8337 13.2328V8.16058C5.83287 7.73001 5.69476 7.31096 5.43922 6.96437L0.999843 0.710679H13.0128L8.57328 6.96437Z" fill="#2C2E3A"/>
</svg>
