<svg width="16" height="19" viewBox="0 0 16 19" fill="none" xmlns="http://www.w3.org/2000/svg">
<mask id="path-1-inside-1" fill="white">
<path d="M0.266321 9.11421C0.266321 9.11421 1.04156 10.1989 2.66639 11.117C2.66639 11.117 1.48962 1.64505 9.15705 0C7.19262 6.86654 11.6559 8.80301 13.2828 5.17528C15.9998 8.63011 13.9368 11.6443 13.9368 11.6443C15.0509 11.7971 15.9867 10.6379 15.9867 10.6379C15.9951 10.7807 15.9998 10.9245 15.9998 11.0693C15.9998 15.2772 12.4181 18.6883 7.9999 18.6883C3.58167 18.6883 0 15.2772 0 11.0693C0 10.3933 0.0928999 9.73816 0.266321 9.11421Z"/>
</mask>
<path d="M0.266321 9.11421C0.266321 9.11421 1.04156 10.1989 2.66639 11.117C2.66639 11.117 1.48962 1.64505 9.15705 0C7.19262 6.86654 11.6559 8.80301 13.2828 5.17528C15.9998 8.63011 13.9368 11.6443 13.9368 11.6443C15.0509 11.7971 15.9867 10.6379 15.9867 10.6379C15.9951 10.7807 15.9998 10.9245 15.9998 11.0693C15.9998 15.2772 12.4181 18.6883 7.9999 18.6883C3.58167 18.6883 0 15.2772 0 11.0693C0 10.3933 0.0928999 9.73816 0.266321 9.11421Z" fill="#14D2B8"/>
<path d="M0.266321 9.11421L1.2426 8.41645L-0.217435 6.37361L-0.889851 8.79286L0.266321 9.11421ZM2.66639 11.117L2.07604 12.1618L4.15109 13.3343L3.85724 10.9691L2.66639 11.117ZM9.15705 0L10.3108 0.330063L10.8609 -1.59287L8.90532 -1.1733L9.15705 0ZM13.2828 5.17528L14.226 4.43348L12.9997 2.87407L12.1879 4.68424L13.2828 5.17528ZM13.9368 11.6443L12.9466 10.9665L11.8497 12.5691L13.7737 12.8331L13.9368 11.6443ZM15.9867 10.6379L17.1847 10.5678L17.0033 7.46834L15.053 9.88415L15.9867 10.6379ZM15.9998 11.0693H14.7998V11.0693L15.9998 11.0693ZM0.266321 9.11421C-0.709963 9.81197 -0.709758 9.81226 -0.709551 9.81255C-0.709478 9.81265 -0.709267 9.81295 -0.70912 9.81315C-0.708827 9.81356 -0.708521 9.81399 -0.708203 9.81443C-0.707566 9.81532 -0.70688 9.81627 -0.706144 9.81729C-0.704672 9.81933 -0.703 9.82164 -0.701128 9.8242C-0.697386 9.82934 -0.692843 9.83552 -0.687498 9.84271C-0.676809 9.85708 -0.662903 9.87549 -0.645757 9.89762C-0.611475 9.94186 -0.564177 10.0011 -0.50368 10.0726C-0.38278 10.2157 -0.208556 10.4089 0.0204935 10.6317C0.477927 11.0765 1.15916 11.6437 2.07604 12.1618L3.25674 10.0723C2.54879 9.67226 2.02999 9.23808 1.6936 8.91099C1.52573 8.74777 1.40459 8.61247 1.32936 8.52345C1.29179 8.479 1.26583 8.44628 1.25137 8.42761C1.24414 8.41829 1.23981 8.4125 1.23835 8.41053C1.23762 8.40955 1.23761 8.40953 1.23832 8.4105C1.23867 8.41099 1.23921 8.41173 1.23992 8.41272C1.24028 8.41321 1.24068 8.41377 1.24113 8.41439C1.24135 8.4147 1.24159 8.41503 1.24183 8.41537C1.24196 8.41555 1.24215 8.41582 1.24221 8.4159C1.24241 8.41618 1.2426 8.41645 0.266321 9.11421ZM2.66639 11.117C3.85724 10.9691 3.85729 10.9695 3.85734 10.9699C3.85735 10.97 3.8574 10.9704 3.85742 10.9706C3.85746 10.9709 3.85749 10.9711 3.8575 10.9712C3.85751 10.9713 3.85746 10.9709 3.85735 10.97C3.85712 10.968 3.85664 10.9639 3.85594 10.9576C3.85455 10.945 3.85229 10.9239 3.84948 10.8948C3.84384 10.8365 3.83597 10.7463 3.82823 10.6283C3.81273 10.392 3.79788 10.0462 3.80226 9.62379C3.81108 8.77367 3.89761 7.64057 4.19836 6.4753C4.79599 4.15972 6.17733 1.86661 9.40878 1.1733L8.90532 -1.1733C4.46934 -0.22156 2.60535 3.04384 1.87451 5.87553C1.51102 7.28389 1.41253 8.62161 1.40239 9.59889C1.39729 10.0902 1.41448 10.4973 1.43338 10.7854C1.44284 10.9296 1.45276 11.0445 1.46062 11.1258C1.46455 11.1664 1.46797 11.1987 1.47056 11.2221C1.47185 11.2337 1.47294 11.2432 1.47379 11.2504C1.47421 11.254 1.47457 11.257 1.47487 11.2594C1.47501 11.2606 1.47514 11.2617 1.47526 11.2626C1.47531 11.2631 1.47539 11.2637 1.47542 11.2639C1.47548 11.2645 1.47555 11.265 2.66639 11.117ZM8.00334 -0.330063C6.97623 3.26011 7.47496 6.09522 9.10784 7.44727C9.95616 8.14969 11.0473 8.36321 12.081 7.99213C13.0829 7.63247 13.8759 6.78532 14.3777 5.66633L12.1879 4.68424C11.8762 5.37911 11.5012 5.65029 11.2701 5.73327C11.0708 5.80482 10.8638 5.78526 10.6385 5.59871C10.1241 5.17282 9.37344 3.60643 10.3108 0.330063L8.00334 -0.330063ZM12.3395 5.91709C13.4743 7.35997 13.5742 8.63724 13.4417 9.52899C13.373 9.99141 13.2377 10.3697 13.1218 10.6282C13.0642 10.7566 13.0127 10.8526 12.979 10.9113C12.9623 10.9406 12.9501 10.9602 12.9442 10.9697C12.9412 10.9744 12.9398 10.9766 12.9401 10.9761C12.9403 10.9758 12.9409 10.9749 12.9419 10.9733C12.9425 10.9725 12.9431 10.9716 12.9439 10.9704C12.9443 10.9699 12.9447 10.9692 12.9451 10.9686C12.9454 10.9683 12.9457 10.9677 12.9458 10.9676C12.9462 10.967 12.9466 10.9665 13.9368 11.6443C14.9271 12.322 14.9275 12.3214 14.9279 12.3209C14.928 12.3207 14.9285 12.3201 14.9287 12.3196C14.9293 12.3188 14.9299 12.3179 14.9305 12.317C14.9318 12.3151 14.9332 12.3131 14.9347 12.3108C14.9378 12.3063 14.9413 12.301 14.9453 12.2949C14.9532 12.2828 14.9631 12.2676 14.9745 12.2494C14.9974 12.2131 15.027 12.1646 15.0613 12.1047C15.1299 11.985 15.2183 11.8185 15.3116 11.6104C15.4976 11.1958 15.7082 10.6046 15.8157 9.88167C16.0354 8.40264 15.8083 6.44542 14.226 4.43348L12.3395 5.91709ZM13.7737 12.8331C14.7827 12.9716 15.6121 12.5121 16.0841 12.1698C16.3365 11.9868 16.5378 11.8005 16.6762 11.6606C16.7463 11.5898 16.8025 11.5285 16.8433 11.4824C16.8638 11.4592 16.8805 11.4397 16.8934 11.4244C16.8999 11.4167 16.9054 11.4101 16.9099 11.4047C16.9121 11.4019 16.9141 11.3995 16.9159 11.3973C16.9168 11.3962 16.9176 11.3952 16.9184 11.3943C16.9187 11.3938 16.9191 11.3934 16.9194 11.393C16.9196 11.3927 16.9199 11.3924 16.92 11.3923C16.9202 11.392 16.9204 11.3917 15.9867 10.6379C15.053 9.88415 15.0533 9.88386 15.0535 9.88357C15.0536 9.88348 15.0538 9.8832 15.0539 9.88302C15.0542 9.88266 15.0545 9.88232 15.0548 9.88199C15.0553 9.88134 15.0558 9.88075 15.0562 9.88022C15.0571 9.87917 15.0577 9.87838 15.0582 9.87784C15.0591 9.87675 15.0592 9.87664 15.0585 9.87745C15.0571 9.87907 15.0527 9.88428 15.0454 9.89252C15.0307 9.90914 15.0051 9.93728 14.97 9.97275C14.8981 10.0454 14.7959 10.1394 14.675 10.227C14.4006 10.4261 14.205 10.4698 14.1 10.4554L13.7737 12.8331ZM14.7888 10.708C14.7959 10.83 14.7998 10.9503 14.7998 11.0693H17.1998C17.1998 10.8987 17.1943 10.7314 17.1847 10.5678L14.7888 10.708ZM14.7998 11.0693C14.7998 14.5599 11.8112 17.4883 7.9999 17.4883V19.8883C13.025 19.8883 17.1998 15.9944 17.1998 11.0693L14.7998 11.0693ZM7.9999 17.4883C4.18859 17.4883 1.2 14.5599 1.2 11.0693H-1.2C-1.2 15.9944 2.97476 19.8883 7.9999 19.8883V17.4883ZM1.2 11.0693C1.2 10.5039 1.27763 9.95676 1.42249 9.43557L-0.889851 8.79286C-1.09183 9.51955 -1.2 10.2828 -1.2 11.0693H1.2Z" fill="#14D2B8" mask="url(#path-1-inside-1)"/>
</svg>
