<svg width="10" height="14" viewBox="0 0 10 14" fill="none" xmlns="http://www.w3.org/2000/svg">
<path d="M5.04595 3.06812C4.0593 3.06812 3.25623 3.87119 3.25623 4.85784C3.25623 5.84449 4.0593 6.64757 5.04595 6.64757C6.0326 6.64757 6.83568 5.84449 6.83568 4.85784C6.83568 3.87119 6.0326 3.06812 5.04595 3.06812ZM5.04595 6.13622C4.34105 6.13622 3.76758 5.56274 3.76758 4.85784C3.76758 4.15294 4.34105 3.57947 5.04595 3.57947C5.75085 3.57947 6.32433 4.15294 6.32433 4.85784C6.32433 5.56274 5.75085 6.13622 5.04595 6.13622Z" fill="black"/>
<path d="M8.46768 1.43613C7.54163 0.510072 6.3103 0 5.00073 0C3.69091 0 2.45983 0.510072 1.53378 1.43613C-0.180014 3.14966 -0.392992 6.37372 1.07254 8.32708L5.00073 14L8.92304 8.33501C10.3945 6.37372 10.1815 3.14966 8.46768 1.43613ZM8.50834 8.03612L5.00073 13.1016L1.4875 8.0282C0.158244 6.25586 0.348722 3.34423 1.89556 1.79765C2.72497 0.968242 3.82769 0.51135 5.00073 0.51135C6.17377 0.51135 7.27649 0.968242 8.10616 1.79765C9.65299 3.34423 9.84347 6.25586 8.50834 8.03612Z" fill="black"/>
</svg>
