<svg width="16" height="16" viewBox="0 0 16 16" fill="none" xmlns="http://www.w3.org/2000/svg">
<g clip-path="url(#clip0)">
<path d="M15.1397 1.20476e-06H0.874863C0.623271 -0.000474698 0.392618 0.140075 0.277608 0.363906C0.161013 0.590752 0.181476 0.863919 0.330433 1.07109L5.55645 8.43296C5.5582 8.43549 5.5601 8.43787 5.56185 8.44041C5.75173 8.69676 5.85437 9.00721 5.855 9.32638V15.3284C5.85389 15.5063 5.92369 15.677 6.04901 15.8031C6.17433 15.9292 6.3447 15.9999 6.52237 15.9999C6.61279 15.9999 6.70211 15.9818 6.78555 15.9473L9.72217 14.8275C9.98534 14.7472 10.16 14.4989 10.16 14.1999V9.32638C10.1605 9.00737 10.2633 8.69676 10.453 8.44041C10.4547 8.43787 10.4566 8.43549 10.4584 8.43296L15.6842 1.07078C15.8332 0.86376 15.8537 0.590752 15.7371 0.363906C15.6221 0.140075 15.3914 -0.000474698 15.1397 1.20476e-06ZM9.79815 7.95928C9.50627 8.35538 9.34843 8.8343 9.34748 9.32638V14.1012L6.66721 15.1232V9.32638C6.66625 8.8343 6.50841 8.35538 6.21637 7.95928L1.1428 0.812205H14.8719L9.79815 7.95928Z" fill="#E93737"/>
</g>
<defs>
<clipPath id="clip0">
<rect width="16" height="16" fill="white"/>
</clipPath>
</defs>
</svg>
