<svg width="14" height="14" viewBox="0 0 14 14" fill="none" xmlns="http://www.w3.org/2000/svg">
<path d="M13.8783 13.286L10.4761 9.88381C11.3887 8.83459 11.9412 7.46563 11.9412 5.9694C11.9412 2.67583 9.26231 0 5.97184 0C2.67827 0 0.00244141 2.67894 0.00244141 5.9694C0.00244141 9.25987 2.68138 11.9388 5.97184 11.9388C7.46807 11.9388 8.83703 11.3863 9.88626 10.4736L13.2885 13.8758C13.3692 13.9565 13.4778 14 13.5834 14C13.6889 14 13.7976 13.9596 13.8783 13.8758C14.0397 13.7144 14.0397 13.4475 13.8783 13.286ZM0.837475 5.9694C0.837475 3.13836 3.1408 0.838138 5.96874 0.838138C8.79978 0.838138 11.1 3.14146 11.1 5.9694C11.1 8.79734 8.79978 11.1038 5.96874 11.1038C3.1408 11.1038 0.837475 8.80044 0.837475 5.9694Z" fill="#2C2E3A"/>
</svg>
